<?xml version="1.0" standalone="no"?>
<!DOCTYPE svg PUBLIC "-//W3C//DTD SVG 20010904//EN"
 "http://www.w3.org/TR/2001/REC-SVG-20010904/DTD/svg10.dtd">
<svg version="1.0" xmlns="http://www.w3.org/2000/svg"
 width="500.000000pt" height="500.000000pt" viewBox="0 0 500.000000 500.000000"
 preserveAspectRatio="xMidYMid meet">
<metadata>
Created by potrace 1.14, written by Peter Selinger 2001-2017
</metadata>
<g transform="translate(0.000000,500.000000) scale(0.100000,-0.100000)"
fill="#000000" stroke="none">
<path d="M2112 3814 c-94 -56 -111 -186 -34 -268 33 -35 80 -56 126 -56 33 0
36 -4 95 -106 34 -58 61 -110 61 -115 0 -6 -7 -24 -16 -41 -21 -41 -20 -120 3
-158 20 -35 26 -18 -68 -181 -37 -65 -39 -66 -87 -73 -130 -17 -201 -151 -139
-261 90 -159 327 -96 327 87 0 24 -8 60 -18 80 l-18 35 63 109 63 109 42 3
c114 8 193 120 159 225 -25 73 -79 116 -160 126 -43 6 -43 6 -106 114 l-62
109 18 36 c80 155 -98 317 -249 226z"/>
<path d="M2730 3833 c-84 -33 -132 -144 -99 -230 13 -34 55 -80 91 -99 34 -18
109 -18 151 0 74 31 120 124 99 203 -24 88 -83 134 -173 132 -30 0 -61 -3 -69
-6z"/>
<path d="M1835 3316 c-91 -41 -129 -147 -86 -242 59 -130 257 -131 320 -2 26
54 26 100 2 153 -33 71 -86 105 -164 105 -23 -1 -55 -7 -72 -14z"/>
<path d="M3008 3310 c-54 -29 -81 -73 -86 -142 -3 -42 1 -70 13 -98 l17 -38
-61 -105 -61 -104 -50 -5 c-150 -15 -214 -206 -104 -310 55 -51 128 -62 200
-29 93 42 130 162 77 251 -14 24 -12 30 47 131 l61 107 48 6 c53 7 103 36 135
79 31 43 34 140 4 192 -46 78 -157 109 -240 65z"/>
<path d="M2454 2171 c-48 -12 -88 -40 -114 -79 -23 -33 -25 -46 -28 -171 -4
-160 4 -196 57 -244 106 -95 305 -53 342 73 18 60 9 70 -61 70 -52 0 -60 -2
-60 -19 0 -10 -8 -29 -19 -42 -23 -29 -81 -31 -111 -4 -18 16 -20 30 -20 146
0 126 0 128 26 148 15 12 37 21 49 21 33 0 75 -37 75 -66 0 -22 4 -24 43 -24
93 0 104 18 66 97 -14 29 -35 52 -63 68 -45 27 -131 39 -182 26z"/>
<path d="M1840 2115 l0 -55 70 0 70 0 2 -212 3 -213 63 -3 62 -3 0 215 0 215
73 3 72 3 3 53 3 52 -210 0 -211 0 0 -55z"/>
<path d="M2790 1900 l0 -270 60 0 60 0 0 110 0 110 85 0 85 0 0 55 0 55 -85 0
-85 0 0 50 0 49 128 3 127 3 3 53 3 52 -190 0 -191 0 0 -270z"/>
</g>
</svg>
